<?xml version="1.0" standalone="no"?>
<!DOCTYPE svg PUBLIC "-//W3C//DTD SVG 20010904//EN"
 "http://www.w3.org/TR/2001/REC-SVG-20010904/DTD/svg10.dtd">
<svg version="1.0" xmlns="http://www.w3.org/2000/svg"
 width="798.000000pt" height="841.000000pt" viewBox="0 0 798.000000 841.000000"
 preserveAspectRatio="xMidYMid meet">

<g transform="translate(0.000000,841.000000) scale(0.100000,-0.100000)"
fill="#000000" stroke="none">
<path d="M3780 8394 c-324 -29 -599 -88 -859 -185 -1073 -402 -1830 -1346
-1986 -2480 -22 -161 -30 -495 -16 -659 29 -328 102 -640 217 -918 47 -114
151 -320 219 -432 30 -51 52 -97 48 -101 -5 -4 -71 -30 -148 -59 -137 -51
-177 -69 -123 -56 15 3 139 26 275 51 136 25 258 47 271 50 l23 6 -29 37 c-95
121 -208 316 -287 491 -184 411 -266 819 -252 1266 13 423 109 805 298 1184
137 275 299 502 523 729 456 465 1005 740 1671 838 89 14 183 18 365 18 182 0
276 -4 365 -18 457 -67 848 -213 1207 -452 322 -214 606 -499 821 -824 481
-730 599 -1665 312 -2490 -84 -242 -214 -500 -346 -688 -60 -86 -74 -112 -60
-112 10 0 130 -20 267 -45 137 -25 254 -45 259 -44 6 0 -47 22 -117 48 -70 26
-130 50 -133 52 -3 3 18 44 46 90 65 108 187 350 232 459 226 547 286 1197
166 1789 -121 598 -432 1163 -878 1594 -482 465 -1077 751 -1751 842 -110 15
-505 27 -600 19z"/>
<path d="M3370 3529 c-233 -35 -505 -68 -617 -75 -96 -6 -141 -15 -305 -64
-186 -56 -191 -58 -143 -62 45 -4 43 -5 -20 -7 -50 -1 -90 -10 -140 -30 l-70
-29 60 -7 c77 -10 810 2 1020 16 88 6 264 12 390 13 208 2 236 4 287 24 31 11
79 24 107 28 l51 7 0 69 0 69 -43 19 c-114 51 -355 63 -577 29z m313 -109 c51
-6 124 -20 162 -30 39 -11 54 -18 35 -15 -19 3 -69 11 -110 17 -126 20 -449
15 -683 -11 -114 -12 -217 -21 -230 -19 -17 2 331 47 483 61 81 8 257 6 343
-3z m-918 -71 c-38 -4 -142 -10 -230 -13 l-160 -5 145 9 c80 5 159 11 175 13
17 2 55 4 85 4 53 0 53 0 -15 -8z m705 0 c-85 -5 -266 -18 -401 -29 -136 -11
-264 -20 -285 -19 -22 1 56 10 171 20 116 10 253 23 305 28 52 4 156 8 230 8
l135 0 -155 -8z m223 -6 c-13 -2 -33 -2 -45 0 -13 2 -3 4 22 4 25 0 35 -2 23
-4z m-985 -50 c-21 -2 -55 -2 -75 0 -21 2 -4 4 37 4 41 0 58 -2 38 -4z m-300
-10 c-10 -2 -26 -2 -35 0 -10 3 -2 5 17 5 19 0 27 -2 18 -5z m135 0 c-18 -2
-48 -2 -65 0 -18 2 -4 4 32 4 36 0 50 -2 33 -4z"/>
<path d="M4183 3535 c-39 -7 -94 -20 -122 -30 l-51 -17 0 -72 0 -72 71 -12
c38 -7 88 -21 109 -32 36 -18 52 -20 162 -14 72 3 235 -1 395 -10 177 -10 431
-16 723 -16 278 0 450 -4 450 -10 0 -11 -165 -146 -280 -227 -480 -342 -1048
-523 -1635 -523 -705 1 -1304 217 -1854 668 l-104 86 -71 -18 c-182 -46 -735
-223 -704 -225 4 -1 134 19 290 44 156 25 293 45 305 45 13 0 49 -24 85 -56
330 -296 769 -535 1208 -659 279 -78 511 -109 830 -109 264 0 399 13 624 61
277 57 474 126 741 258 251 123 481 276 665 441 30 27 62 55 71 62 13 10 73 3
314 -38 164 -27 300 -48 302 -46 6 6 -501 172 -647 211 -74 21 -168 50 -208
66 -51 20 -92 30 -140 31 -61 1 -63 2 -17 6 49 4 45 6 -130 58 -162 49 -197
56 -345 69 -184 17 -236 23 -528 65 -223 33 -385 38 -509 15z m585 -121 c199
-22 402 -52 367 -53 -17 -1 -118 9 -225 21 -259 29 -594 31 -724 5 -48 -10
-90 -16 -92 -14 -4 4 171 44 221 50 80 10 331 5 453 -9z m-225 -41 c-46 -2
-120 -2 -165 0 -46 1 -9 3 82 3 91 0 128 -2 83 -3z m185 -10 c-15 -2 -42 -2
-60 0 -18 2 -6 4 27 4 33 0 48 -2 33 -4z m110 -10 c-16 -2 -40 -2 -55 0 -16 2
-3 4 27 4 30 0 43 -2 28 -4z m405 0 c-13 -2 -35 -2 -50 0 -16 2 -5 4 22 4 28
0 40 -2 28 -4z m-463 -23 c69 -9 -30 -5 -285 11 -112 6 -106 7 45 2 96 -3 204
-9 240 -13z m173 13 c-13 -2 -35 -2 -50 0 -16 2 -5 4 22 4 28 0 40 -2 28 -4z
m420 0 c-18 -2 -48 -2 -65 0 -18 2 -4 4 32 4 36 0 50 -2 33 -4z m-1025 -10
c-10 -2 -28 -2 -40 0 -13 2 -5 4 17 4 22 1 32 -1 23 -4z m720 0 c-16 -2 -40
-2 -55 0 -16 2 -3 4 27 4 30 0 43 -2 28 -4z m490 0 c-27 -2 -69 -2 -95 0 -27
2 -5 3 47 3 52 0 74 -1 48 -3z m-401 -9 c-3 -3 -12 -4 -19 -1 -8 3 -5 6 6 6
11 1 17 -2 13 -5z m-229 -11 c-16 -2 -40 -2 -55 0 -16 2 -3 4 27 4 30 0 43 -2
28 -4z m149 -10 c-20 -2 -52 -2 -70 0 -17 2 0 4 38 4 39 0 53 -2 32 -4z m146
-10 c-7 -2 -21 -2 -30 0 -10 3 -4 5 12 5 17 0 24 -2 18 -5z"/>
<path d="M253 1756 c-102 -33 -176 -98 -222 -195 -22 -48 -25 -70 -26 -151 0
-84 3 -101 27 -145 14 -28 46 -69 70 -91 45 -42 231 -158 481 -302 82 -47 152
-93 158 -103 12 -24 2 -46 -24 -53 -12 -3 -165 -6 -339 -6 l-318 0 0 -150 0
-151 378 3 377 3 50 27 c132 70 206 206 192 355 -7 70 -44 157 -82 194 -14 13
-169 110 -343 214 -435 261 -436 255 45 255 l334 0 -3 153 -3 152 -355 2
c-271 1 -365 -1 -397 -11z"/>
<path d="M1230 1520 l0 -250 -55 0 -55 0 0 -155 0 -155 55 0 55 0 0 -275 0
-275 155 0 155 0 0 275 0 275 130 0 130 0 0 -275 0 -275 155 0 155 0 0 680 0
680 -155 0 -155 0 0 -250 0 -250 -130 0 -130 0 0 250 0 250 -155 0 -155 0 0
-250z"/>
<path d="M2200 1090 l0 -680 400 0 400 0 0 150 0 150 -245 0 -245 0 0 125 0
125 165 0 166 0 -3 153 -3 152 -162 3 -163 2 0 95 0 95 245 0 245 0 0 155 0
155 -400 0 -400 0 0 -680z"/>
<path d="M3210 1520 l0 -250 -55 0 -55 0 0 -155 0 -155 55 0 55 0 0 -275 0
-275 155 0 155 0 0 276 0 275 26 -3 c23 -3 37 -23 103 -148 42 -80 108 -202
146 -272 l68 -128 174 0 174 0 -17 33 c-9 17 -90 171 -180 340 l-164 308 41
51 c22 29 56 82 74 118 35 70 215 491 215 503 0 4 -75 6 -167 5 l-167 -3 -81
-187 c-45 -103 -92 -204 -106 -225 -28 -44 -82 -83 -115 -83 l-24 0 -2 248 -3
247 -152 3 -153 3 0 -251z"/>
<path d="M4307 1763 c-4 -3 -7 -309 -7 -680 l0 -673 155 0 155 0 0 680 0 680
-148 0 c-82 0 -152 -3 -155 -7z"/>
<path d="M4710 1090 l0 -680 155 0 155 0 2 411 3 411 144 -234 c79 -128 194
-313 254 -410 l110 -178 179 0 178 0 -2 678 -3 677 -152 3 -153 3 0 -416 c0
-373 -4 -450 -23 -401 -3 7 -57 96 -119 197 -63 101 -175 282 -249 401 l-134
218 -172 0 -173 0 0 -680z"/>
<path d="M6590 1750 c-147 -36 -267 -107 -372 -218 -104 -110 -162 -220 -215
-402 -23 -80 -25 -104 -30 -402 l-6 -318 157 0 156 0 0 155 0 155 155 0 155 0
0 -155 0 -155 155 0 155 0 0 680 0 680 -117 -1 c-79 0 -143 -7 -193 -19z m0
-525 l0 -195 -146 0 -146 0 7 33 c20 92 83 202 152 269 41 39 110 88 124 88 5
0 9 -88 9 -195z"/>
<path d="M7100 1520 l0 -250 -55 0 -55 0 0 -155 0 -155 55 0 55 0 0 -275 0
-275 155 0 155 0 0 275 0 275 130 0 130 0 0 -275 0 -275 155 0 155 0 0 680 0
680 -155 0 -155 0 0 -250 0 -250 -130 0 -130 0 0 250 0 250 -155 0 -155 0 0
-250z"/>
</g>
</svg>
